<?xml version="1.0" standalone="no"?><!DOCTYPE svg PUBLIC "-//W3C//DTD SVG 1.1//EN" "http://www.w3.org/Graphics/SVG/1.1/DTD/svg11.dtd"><svg t="1718861945102" class="icon" viewBox="0 0 1024 1024" version="1.1" xmlns="http://www.w3.org/2000/svg" p-id="907" xmlns:xlink="http://www.w3.org/1999/xlink" width="35" height="35"><path d="M512-242.12320149C102.61883369-242.12320149-242.12320149 102.61883369-242.12320149 512s344.74203517 754.12320149 754.12320149 754.12320149 754.12320149-344.74203517 754.12320149-754.12320149-344.74203517-754.12320149-754.12320149-754.12320149z m323.19565715 969.58697294c32.31956556 32.31956556 32.31956556 75.41232014 0 96.95869817-32.31956556 32.31956556-75.41232014 32.31956556-96.9586967 0l-215.46377145-215.46377291L296.53622855 835.19565715c-32.31956556 32.31956556-75.41232014 32.31956556-107.7318857 0s-32.31956556-86.18550917 0-107.73188573l226.23696044-226.23696042-215.46377291-215.46377145c-32.31956556-21.54637655-32.31956556-64.63913113 0-96.9586967 32.31956556-32.31956556 75.41232014-32.31956556 96.95869817 0l215.46377145 215.46377143 226.23696045-226.23696046c32.31956556-32.31956556 75.41232014-32.31956556 107.73188573 0 32.31956556 32.31956556 32.31956556 75.41232014 0 107.73188573L619.73188572 512l215.46377143 215.46377145z" fill="#2c2c2c" p-id="908"></path></svg>