<?xml version="1.0" standalone="no"?><!DOCTYPE svg PUBLIC "-//W3C//DTD SVG 1.1//EN" "http://www.w3.org/Graphics/SVG/1.1/DTD/svg11.dtd"><svg t="1718868925792" class="icon" viewBox="0 0 1024 1024" version="1.1" xmlns="http://www.w3.org/2000/svg" p-id="2430" width="20" height="20" xmlns:xlink="http://www.w3.org/1999/xlink"><path d="M819.627 151.467a34.133 34.133 0 1 1 48.213 48.213L535.893 531.627a34.133 34.133 0 0 1-48.213 0L156.16 199.68a34.133 34.133 0 1 1 48.213-48.213L512 459.093z m0 341.333a34.133 34.133 0 1 1 48.213 48.213L535.893 872.96a34.133 34.133 0 0 1-48.213 0L156.16 541.013a34.133 34.133 0 0 1 48.213-48.213L512 800.427z" fill="#333333" p-id="2431"></path></svg>