<?xml version="1.0" standalone="no"?><!DOCTYPE svg PUBLIC "-//W3C//DTD SVG 1.1//EN" "http://www.w3.org/Graphics/SVG/1.1/DTD/svg11.dtd"><svg t="1718877497125" class="icon" viewBox="0 0 1024 1024" version="1.1" xmlns="http://www.w3.org/2000/svg" p-id="1059" xmlns:xlink="http://www.w3.org/1999/xlink" width="20" height="20"><path d="M850.5509375 566.624375c19.8290625 0 35.9034375-16.78875 35.9034375-37.5 0-20.503125-15.7546875-37.1634375-35.3090625-37.494375l-0.594375-0.005625H205.1703125c-19.8290625 0-35.9034375 16.7896875-35.9034375 37.5 0 20.503125 15.7546875 37.164375 35.3090625 37.4953125l0.594375 0.0046875H850.55z" fill="#000000" p-id="1060"></path><path d="M432.7390625 838.5978125c14.64375 14.6446875 38.3878125 14.6446875 53.0325 0 14.4984375-14.4975 14.64375-37.914375 0.435-52.5909375l-0.435-0.4415625L202.0446875 501.8375c-14.64375-14.64375-38.3878125-14.64375-53.0325 0-14.4984375 14.4984375-14.64375 37.914375-0.435 52.5909375l0.435 0.4425L432.7390625 838.596875z" fill="#000000" p-id="1061"></path><path d="M484.641875 271.9390625c14.6446875-14.6446875 14.6446875-38.38875 0-53.0334375-14.4984375-14.4975-37.914375-14.64375-52.5909375-0.435l-0.4415625 0.435-283.3425 283.3425c-14.6446875 14.64375-14.6446875 38.3878125 0 53.0325 14.4984375 14.4984375 37.914375 14.64375 52.5909375 0.435l0.4415625-0.435 283.3425-283.3415625z" fill="#000000" p-id="1062"></path></svg>