<?xml version="1.0" standalone="no"?><!DOCTYPE svg PUBLIC "-//W3C//DTD SVG 1.1//EN" "http://www.w3.org/Graphics/SVG/1.1/DTD/svg11.dtd"><svg t="1719241641446" class="icon" viewBox="0 0 1308 1024" version="1.1" xmlns="http://www.w3.org/2000/svg" p-id="1331" xmlns:xlink="http://www.w3.org/1999/xlink" width="30.65625" height="24"><path d="M422.066359 867.911535a27.122235 27.122235 0 1 1 0 54.244471h-139.679513a276.375579 276.375579 0 0 1-22.240233-552.208714 394.899748 394.899748 0 0 1 788.172163 0A276.375579 276.375579 0 0 1 1026.078543 922.156006h-139.408291a27.122235 27.122235 0 1 1 0-54.244471h139.408291a222.185353 222.185353 0 0 0 17.900675-443.990995l-47.19269-3.797113-2.712223-47.463912a340.655277 340.655277 0 0 0-679.954443 0l-2.712224 47.463912-47.19269 3.797113A222.185353 222.185353 0 0 0 282.386846 867.911535h139.679513" fill="#2c2c2c" p-id="1332"></path><path d="M806.388435 641.169646l-131.814064-131.814064a29.020792 29.020792 0 0 0-40.683353 0l-131.814065 131.814064a28.74957 28.74957 0 1 0 40.683354 40.683354l81.366706-81.366707v394.628526a28.885181 28.885181 0 0 0 57.770362 0V599.401404l81.366706 81.366706a28.74957 28.74957 0 1 0 40.683353-40.683353zM654.232694 569.566945z" fill="#2c2c2c" p-id="1333"></path></svg>